<?xml version="1.0" encoding="UTF-8"?>
<svg xmlns="http://www.w3.org/2000/svg" viewBox="0 0 1200 644" width="1200" height="644">
  <defs>
    <linearGradient id="bg" x1="0%" y1="0%" x2="100%" y2="100%">
      <stop offset="0%" stop-color="#0B1F3A"/><stop offset="55%" stop-color="#123456"/><stop offset="100%" stop-color="#1A4D6E"/>
    </linearGradient>
    <linearGradient id="oil" x1="0%" y1="0%" x2="0%" y2="100%"><stop offset="0%" stop-color="#F4C542"/><stop offset="100%" stop-color="#C8860A"/></linearGradient>
    <linearGradient id="water" x1="0%" y1="0%" x2="0%" y2="100%"><stop offset="0%" stop-color="#5BC0EB"/><stop offset="100%" stop-color="#2E86AB"/></linearGradient>
  </defs>
  <rect width="1200" height="644" fill="url(#bg)"/>
  <circle cx="980" cy="120" r="180" fill="#fff" opacity="0.04"/>
  <circle cx="1050" cy="520" r="240" fill="#fff" opacity="0.03"/>
  <g transform="translate(780,90)">
    <rect x="70" y="0" width="36" height="420" fill="#334155" rx="4"/>
    <rect x="78" y="180" width="20" height="160" fill="url(#water)" opacity="0.9"/>
    <rect x="78" y="250" width="20" height="90" fill="url(#oil)" opacity="0.95"/>
    <path d="M88 420 L60 470 L116 470 Z" fill="#475569"/>
    <text x="88" y="505" text-anchor="middle" fill="#94A3B8" font-family="Arial,sans-serif" font-size="14">скважина</text>
  </g>
  <text x="80" y="120" fill="#FFF" font-family="Arial,sans-serif" font-size="22" letter-spacing="2">НЕФТЕДОБЫЧА · ОГРАНИЧЕНИЕ ВОДОПРИТОКА</text>
  <text x="80" y="200" fill="#FFF" font-family="Arial,sans-serif" font-size="44" font-weight="bold">Селективное ограничение водопритока</text>
  <text x="80" y="260" fill="#F4C542" font-family="Arial,sans-serif" font-size="36" font-weight="bold">Сначала — диагностика. Потом — реагент.</text>
  <text x="80" y="310" fill="#CBD5E1" font-family="Arial,sans-serif" font-size="22">RPM · гели · PPG · хемоинформатика · core flood</text>
  <g transform="translate(80,390)"><rect width="210" height="56" rx="28" fill="#fff" opacity="0.12"/>
    <text x="24" y="35" fill="#FFF" font-family="Arial,sans-serif" font-size="20" font-weight="bold">3000+</text>
    <text x="92" y="35" fill="#CBD5E1" font-family="Arial,sans-serif" font-size="18">RPM-обработок в мире</text></g>
  <g transform="translate(320,390)"><rect width="250" height="56" rx="28" fill="#fff" opacity="0.12"/>
    <text x="24" y="35" fill="#FFF" font-family="Arial,sans-serif" font-size="20" font-weight="bold">85%</text>
    <text x="82" y="35" fill="#CBD5E1" font-family="Arial,sans-serif" font-size="18">типичная обводнённость</text></g>
  <g transform="translate(600,390)"><rect width="280" height="56" rx="28" fill="#E8A838" opacity="0.95"/>
    <text x="24" y="35" fill="#0B1F3A" font-family="Arial,sans-serif" font-size="18" font-weight="bold">#1 фактор — candidate selection</text></g>
  <text x="80" y="590" fill="#64748B" font-family="Arial,sans-serif" font-size="16">Статья для LinkedIn · vodopritok project</text>
</svg>