<?xml version="1.0" encoding="UTF-8"?>
<svg xmlns="http://www.w3.org/2000/svg" viewBox="0 0 1200 580" width="1200" height="580">
  <rect width="1200" height="580" fill="#0B1F3A"/>
  <text x="600" y="55" text-anchor="middle" fill="#FFF" font-family="Arial,sans-serif" font-size="34" font-weight="bold">Хемоинформатика: 100 рецептур → 15</text>
  <text x="600" y="92" text-anchor="middle" fill="#94A3B8" font-family="Arial,sans-serif" font-size="20">Фильтр перед лабораторией</text>
  <g font-family="Arial,sans-serif">
    <rect x="40" y="140" width="150" height="100" rx="12" fill="#1E3A5F" stroke="#5BC0EB" stroke-width="2"/>
    <text x="115" y="180" text-anchor="middle" fill="#5BC0EB" font-size="15" font-weight="bold">Библиотека</text>
    <text x="210" y="195" fill="#64748B" font-size="28">→</text>
    <rect x="230" y="140" width="150" height="100" rx="12" fill="#1E3A5F" stroke="#5BC0EB" stroke-width="2"/>
    <text x="305" y="180" text-anchor="middle" fill="#5BC0EB" font-size="15" font-weight="bold">ML / QSAR</text>
    <text x="400" y="195" fill="#64748B" font-size="28">→</text>
    <rect x="420" y="140" width="150" height="100" rx="12" fill="#1E3A5F" stroke="#F4C542" stroke-width="2"/>
    <text x="495" y="180" text-anchor="middle" fill="#F4C542" font-size="15" font-weight="bold">Top-15</text>
    <text x="590" y="195" fill="#64748B" font-size="28">→</text>
    <rect x="610" y="140" width="150" height="100" rx="12" fill="#1E3A5F" stroke="#16A34A" stroke-width="2"/>
    <text x="685" y="180" text-anchor="middle" fill="#4ADE80" font-size="15" font-weight="bold">Core flood</text>
    <text x="780" y="195" fill="#64748B" font-size="28">→</text>
    <rect x="800" y="140" width="120" height="100" rx="12" fill="#16A34A"/>
    <text x="860" y="195" text-anchor="middle" fill="#FFF" font-size="15" font-weight="bold">DoE</text>
  </g>
  <text x="80" y="310" fill="#94A3B8" font-family="Arial,sans-serif" font-size="18">Без хемоинформатики</text>
  <rect x="80" y="325" width="900" height="36" rx="8" fill="#DC2626" opacity="0.9"/>
  <text x="990" y="349" fill="#FCA5A5" font-family="Arial,sans-serif" font-size="18" font-weight="bold">~100 опытов</text>
  <text x="80" y="410" fill="#94A3B8" font-family="Arial,sans-serif" font-size="18">С хемоинформатикой</text>
  <rect x="80" y="425" width="900" height="36" rx="8" fill="#334155"/>
  <rect x="80" y="425" width="135" height="36" rx="8" fill="#16A34A"/>
  <text x="990" y="449" fill="#4ADE80" font-family="Arial,sans-serif" font-size="18" font-weight="bold">~15 опытов</text>
  <text x="600" y="530" text-anchor="middle" fill="#F4C542" font-family="Arial,sans-serif" font-size="16" font-weight="bold">RPM · термотропный gel · PPG</text>
</svg>